<?xml version="1.0" standalone="no"?>
<!DOCTYPE svg PUBLIC "-//W3C//DTD SVG 20010904//EN"
 "http://www.w3.org/TR/2001/REC-SVG-20010904/DTD/svg10.dtd">
<svg version="1.0" xmlns="http://www.w3.org/2000/svg"
 width="457.000000pt" height="457.000000pt" viewBox="0 0 457.000000 457.000000"
 preserveAspectRatio="xMidYMid meet">
<metadata>
Created by potrace 1.11, written by Peter Selinger 2001-2013
</metadata>
<g transform="translate(0.000000,457.000000) scale(0.100000,-0.100000)"
fill="#000000" stroke="none">
<path d="M2195 4085 c-35 -34 -32 -70 9 -111 45 -45 103 -48 136 -7 64 82 -72
192 -145 118z m70 -36 c8 -25 -7 -44 -29 -36 -19 8 -21 43 -3 50 21 9 26 7 32
-14z"/>
<path d="M2080 3884 c-86 -18 -116 -32 -102 -46 19 -19 95 -29 282 -34 200 -6
282 5 288 38 6 31 -54 51 -163 55 -67 2 -93 0 -80 -6 11 -5 36 -10 56 -10 47
-1 99 -20 99 -36 0 -19 -49 -25 -194 -24 -141 1 -187 7 -193 25 -5 16 22 25
100 31 37 3 70 10 73 14 8 13 -93 9 -166 -7z"/>
<path d="M2052 3755 c-30 -7 -60 -19 -68 -27 -49 -49 147 -79 374 -59 134 13
192 25 192 42 0 17 -77 39 -192 54 -74 10 -57 -11 19 -23 151 -25 87 -53 -128
-55 -123 -2 -160 1 -173 12 -16 14 -16 16 10 29 15 8 56 17 91 20 35 2 63 9
63 13 0 13 -127 9 -188 -6z"/>
<path d="M3312 3630 c0 -14 2 -19 5 -12 2 6 2 18 0 25 -3 6 -5 1 -5 -13z"/>
<path d="M3335 3622 c3 -22 1 -31 -6 -26 -8 4 -9 -7 -5 -37 14 -93 17 -100 34
-95 10 3 57 2 105 -2 49 -4 91 -4 93 0 3 4 -17 8 -43 8 -61 0 -97 23 -90 56 3
20 1 23 -13 19 -20 -6 -30 18 -30 75 l0 34 -17 -24 -17 -24 -8 24 c-6 20 -7
18 -3 -8z"/>
<path d="M2178 3559 c-43 -25 -17 -32 102 -27 122 5 137 8 125 27 -8 14 -204
14 -227 0z"/>
<path d="M3450 3516 c0 -15 24 -28 34 -19 13 14 5 33 -14 33 -11 0 -20 -6 -20
-14z"/>
<path d="M3500 3389 c-54 -14 -110 -32 -110 -35 0 -16 16 -34 30 -34 10 0 20
-4 22 -10 4 -12 128 8 128 21 0 5 11 9 25 9 27 0 31 10 15 41 -12 21 -50 24
-110 8z"/>
<path d="M2022 3364 c-34 -24 -28 -84 11 -102 24 -12 31 -11 52 2 14 9 28 28
31 43 6 21 2 31 -20 50 -32 27 -44 28 -74 7z"/>
<path d="M2457 3362 c-53 -58 28 -137 83 -82 24 24 25 48 4 78 -19 27 -64 29
-87 4z"/>
<path d="M1766 3360 c-41 -13 -93 -66 -112 -116 -33 -87 5 -176 91 -215 51
-24 89 -25 81 -3 -3 9 -6 20 -6 25 0 4 -8 6 -17 2 -14 -5 -13 -1 5 19 21 24
22 27 7 42 -9 9 -21 16 -26 16 -18 0 -9 22 11 27 13 4 20 14 20 30 0 13 -4 22
-9 19 -4 -3 -16 3 -26 14 -17 18 -16 19 9 26 31 7 35 40 9 60 -17 13 -17 13 0
14 13 0 17 6 15 22 -4 26 -13 29 -52 18z m3 -96 c-29 -15 -48 -2 -30 20 10 12
18 13 34 5 20 -11 20 -12 -4 -25z m1 -73 c0 -15 -32 -22 -46 -10 -22 18 2 42
27 28 10 -5 19 -14 19 -18z m-6 -76 c22 -16 21 -20 -10 -29 -28 -8 -56 21 -33
35 18 11 20 11 43 -6z"/>
<path d="M2710 3340 c0 -13 7 -20 20 -20 26 0 26 -20 -1 -27 -12 -4 -18 -11
-15 -20 3 -8 6 -17 6 -19 0 -2 8 -4 18 -4 9 0 24 -5 32 -10 13 -8 12 -11 -5
-23 -10 -8 -25 -13 -32 -10 -9 4 -13 -5 -13 -27 0 -25 3 -30 18 -26 9 3 24 1
31 -4 12 -7 10 -11 -12 -21 -34 -16 -37 -53 -4 -64 l22 -8 -22 -4 c-15 -3 -23
-12 -23 -25 0 -18 4 -20 37 -15 42 7 77 30 107 71 63 84 -28 276 -129 276 -28
0 -35 -4 -35 -20z m100 -65 c10 -13 9 -15 -8 -15 -22 0 -36 13 -25 24 10 10
20 7 33 -9z m40 -80 c0 -11 -38 -23 -50 -15 -23 14 7 43 31 29 10 -5 19 -12
19 -14z m-14 -76 c11 -18 -19 -39 -45 -32 l-24 6 24 18 c28 22 35 23 45 8z"/>
<path d="M3389 3205 c0 0 -2 -17 -4 -37 -3 -34 -1 -38 21 -38 14 0 24 -6 24
-14 0 -11 18 -15 70 -18 51 -2 70 0 70 10 0 7 13 12 33 12 32 0 33 1 29 34 -4
34 -6 35 -56 41 -40 5 -183 13 -187 10z"/>
<path d="M2101 3133 l-63 -4 7 -102 c4 -56 9 -103 10 -105 2 -2 63 -3 137 -2
73 1 185 2 249 2 l116 1 10 101 c6 56 9 104 6 109 -4 7 -343 7 -472 0z m39
-75 c0 -77 -8 -98 -36 -98 -30 0 -32 4 -40 83 l-7 67 42 0 41 0 0 -52z m88
-25 c-3 -76 -4 -78 -29 -81 -24 -3 -27 1 -33 44 -3 26 -6 62 -6 80 0 32 2 34
35 34 l36 0 -3 -77z m100 0 l-3 -78 -32 -3 c-31 -3 -33 -2 -33 31 0 19 -3 55
-6 81 l-7 46 42 0 42 0 -3 -77z m108 50 c-2 -16 -5 -52 -5 -80 l-1 -53 -35 0
c-27 0 -35 4 -35 19 0 10 -3 46 -6 80 l-7 61 47 0 c45 0 47 -1 42 -27z m121 5
c-3 -13 -11 -49 -18 -80 -12 -56 -13 -58 -44 -58 l-32 0 -2 80 -2 80 52 0 c48
0 51 -1 46 -22z"/>
<path d="M3354 3004 c-5 -27 -2 -38 11 -48 10 -7 15 -17 12 -22 -3 -6 29 -23
71 -38 48 -18 77 -25 80 -18 2 8 11 8 29 1 20 -7 28 -6 35 3 14 23 8 48 -14
58 -13 6 -30 14 -38 19 -8 6 -44 22 -80 36 -36 15 -73 31 -82 36 -14 7 -18 3
-24 -27z"/>
<path d="M3287 2853 c-8 -14 0 -95 10 -102 5 -3 30 -34 55 -69 28 -38 49 -59
53 -52 5 8 12 7 25 -5 17 -15 19 -14 43 16 l25 33 -33 40 c-34 42 -62 69 -124
119 -35 28 -47 32 -54 20z"/>
<path d="M2178 2833 c-73 -11 11 -46 114 -47 43 -1 78 -4 78 -8 0 -5 -27 -8
-61 -8 -33 0 -58 -4 -55 -8 3 -5 29 -7 58 -4 49 4 54 2 55 -17 1 -12 -4 -21
-12 -21 -9 0 -12 7 -9 18 5 16 5 16 -6 0 -11 -18 -76 -27 -66 -9 3 5 -5 11
-18 13 -19 4 -22 1 -18 -14 4 -16 13 -18 71 -16 l66 3 6 44 c3 25 11 47 17 49
7 2 12 10 12 18 0 11 -20 14 -102 13 -57 -1 -115 -4 -130 -6z"/>
<path d="M2189 2760 c0 -14 -2 -33 -4 -42 -2 -10 3 -18 11 -18 8 0 14 5 14 10
0 6 -5 10 -10 10 -6 0 -5 8 2 20 10 15 10 22 0 32 -9 9 -12 7 -13 -12z"/>
<path d="M3187 2738 c-11 -12 -15 -26 -11 -42 3 -13 1 -27 -4 -30 -6 -3 11
-42 39 -89 27 -45 47 -88 44 -95 -3 -9 0 -10 15 -2 15 8 22 6 34 -11 14 -21
16 -21 40 -5 31 19 31 20 10 51 -9 14 -14 32 -10 40 3 9 2 14 -3 11 -5 -3 -27
25 -49 62 -22 37 -51 81 -64 97 -22 30 -24 30 -41 13z"/>
<path d="M3048 2643 c-10 -12 -13 -25 -8 -38 4 -11 3 -25 -2 -32 -14 -18 42
-195 65 -201 9 -2 17 -13 17 -23 0 -20 25 -25 48 -10 11 7 12 18 2 62 -15 70
-84 252 -96 256 -6 2 -17 -4 -26 -14z"/>
<path d="M1503 2543 c-8 -3 -11 -14 -7 -30 4 -14 2 -28 -4 -32 -14 -8 40 -183
58 -189 6 -2 15 -15 20 -28 9 -22 54 -43 66 -31 7 7 -20 98 -57 187 -58 145
-51 133 -76 123z"/>
<path d="M1282 2462 c-23 -11 -31 -20 -26 -31 4 -9 7 -26 8 -38 1 -30 98 -164
113 -158 7 2 17 -5 23 -15 6 -12 21 -20 35 -20 l24 0 -20 48 c-32 77 -111 232
-118 231 -3 0 -21 -8 -39 -17z"/>
<path d="M2521 2408 c-1 -20 3 -25 17 -23 9 2 36 4 60 4 36 1 42 4 42 22 0 19
-1 19 -16 5 -22 -23 -91 -21 -97 2 -3 11 -5 7 -6 -10z"/>
<path d="M2750 2410 c-12 -8 -10 -10 10 -9 14 0 43 4 65 8 l40 9 -50 1 c-27 0
-57 -4 -65 -9z"/>
<path d="M2361 2399 c-24 -5 -48 -6 -52 -3 -5 3 -9 0 -9 -5 0 -7 24 -11 60
-11 47 0 60 3 60 15 0 8 -3 15 -7 14 -5 -1 -28 -5 -52 -10z"/>
<path d="M1873 2383 c-29 -2 -53 -9 -53 -15 0 -5 7 -7 16 -4 9 3 36 6 60 6 24
0 44 5 44 10 0 6 -3 9 -7 8 -5 -1 -32 -3 -60 -5z"/>
<path d="M2060 2378 c0 -5 27 -8 60 -8 33 0 60 3 60 8 0 4 -27 7 -60 7 -33 0
-60 -3 -60 -7z"/>
<path d="M1045 2343 l-28 -24 32 -33 c19 -20 28 -35 22 -41 -12 -12 101 -133
118 -127 7 2 21 -4 31 -13 18 -17 21 -17 45 -1 l26 17 -30 38 c-16 20 -65 76
-109 122 l-79 86 -28 -24z"/>
<path d="M1913 2202 l-53 -3 0 -214 0 -214 163 5 c89 3 307 9 485 13 177 4
324 10 327 13 8 8 21 378 14 378 -3 0 -9 -80 -13 -177 -4 -98 -10 -180 -13
-183 -3 -3 -916 -28 -939 -25 -1 0 -5 89 -9 198 l-7 197 109 0 c250 1 878 12
882 16 5 5 -868 2 -946 -4z"/>
<path d="M889 2181 l-23 -18 37 -24 c20 -13 36 -30 34 -38 -3 -18 113 -97 136
-93 10 2 29 -4 43 -12 23 -16 25 -16 36 10 11 23 9 28 -12 45 -58 46 -209 149
-218 149 -5 0 -20 -8 -33 -19z"/>
<path d="M1903 2114 c3 -32 9 -110 13 -173 l7 -114 436 8 c240 4 437 8 437 8
1 1 5 70 8 153 l7 152 -33 5 c-18 2 -163 5 -323 6 -159 1 -350 4 -424 8 l-134
6 6 -59z m863 -31 c-4 -27 -7 -85 -8 -130 l-2 -82 -75 -3 c-42 -2 -223 -5
-403 -6 l-328 -3 0 38 c0 21 -3 47 -6 58 -3 14 5 34 25 58 l29 38 33 -51 c18
-27 35 -50 39 -50 4 0 28 18 53 40 l45 40 43 -71 c48 -79 41 -81 80 24 11 32
23 56 26 54 2 -3 12 -38 22 -78 l17 -74 18 80 c20 88 15 88 75 -9 19 -31 38
-56 42 -56 3 0 21 38 39 85 18 46 37 82 42 79 6 -4 4 4 -3 17 -9 18 -13 20
-17 9 -3 -8 -17 -43 -33 -78 l-28 -62 -53 56 -52 55 -13 -37 c-7 -21 -15 -39
-17 -42 -3 -2 -13 16 -24 40 l-19 43 -32 -62 c-17 -35 -33 -63 -36 -63 -3 0
-21 25 -41 55 -20 30 -41 55 -46 55 -5 0 -27 -14 -48 -31 l-39 -32 -28 33
c-15 19 -33 40 -39 48 -9 12 -14 10 -33 -14 -18 -23 -24 -26 -31 -14 -11 17
-13 74 -3 83 3 4 193 7 421 7 l414 0 -6 -47z"/>
<path d="M2580 2046 c0 -3 21 -66 36 -106 4 -10 11 -6 26 18 11 17 22 32 26
32 3 0 21 -12 41 -27 l36 -26 -39 41 -40 42 -22 -21 -22 -21 -17 36 c-15 31
-25 44 -25 32z"/>
<path d="M760 1986 c0 -17 9 -28 35 -40 19 -9 35 -22 35 -29 0 -15 124 -71
128 -58 2 5 19 3 39 -5 41 -17 41 -17 49 22 6 33 19 25 -156 93 -57 23 -110
41 -117 41 -7 0 -13 -11 -13 -24z"/>
<path d="M714 1804 c3 -9 6 -17 6 -20 0 -2 16 -10 35 -18 19 -8 35 -21 35 -29
0 -15 97 -49 105 -37 3 5 12 7 21 3 14 -5 54 22 54 38 0 8 -92 40 -186 64 -76
19 -78 19 -70 -1z"/>
<path d="M1870 1699 c0 -18 81 -22 658 -33 214 -4 233 -3 230 12 -3 15 -45 18
-446 27 -407 9 -442 9 -442 -6z"/>
<path d="M835 1650 c11 -5 29 -9 40 -9 l20 0 -20 9 c-11 5 -29 9 -40 9 l-20 0
20 -9z"/>
<path d="M802 1613 c2 -10 10 -18 18 -18 22 0 18 29 -3 33 -14 3 -18 -1 -15
-15z"/>
<path d="M930 1600 c0 -5 5 -10 11 -10 5 0 7 5 4 10 -3 6 -8 10 -11 10 -2 0
-4 -4 -4 -10z"/>
<path d="M866 1581 c-3 -5 2 -8 11 -7 15 1 17 -9 14 -78 -3 -70 -1 -78 14 -72
9 3 25 6 36 6 17 0 19 8 19 69 0 60 -2 69 -20 74 -11 3 -20 0 -20 -5 0 -6 -8
-4 -18 5 -21 19 -28 21 -36 8z"/>
<path d="M1888 1563 c7 -3 16 -2 19 1 4 3 -2 6 -13 5 -11 0 -14 -3 -6 -6z"/>
<path d="M2028 1563 c6 -2 18 -2 25 0 6 3 1 5 -13 5 -14 0 -19 -2 -12 -5z"/>
<path d="M2074 1545 c3 -19 11 -20 255 -22 l251 -2 0 22 0 22 -255 0 c-248 0
-254 0 -251 -20z"/>
<path d="M2598 1563 c6 -2 18 -2 25 0 6 3 1 5 -13 5 -14 0 -19 -2 -12 -5z"/>
<path d="M2663 1563 c15 -2 37 -2 50 0 12 2 0 4 -28 4 -27 0 -38 -2 -22 -4z"/>
<path d="M2636 1443 c-48 -4 -48 -4 -42 -35 3 -17 6 -41 6 -55 0 -23 3 -24 51
-22 27 2 52 6 54 9 6 10 -7 110 -14 108 -3 -1 -28 -3 -55 -5z"/>
<path d="M1961 1350 l-2 -50 61 0 60 0 1 -52 c1 -29 1 -63 2 -76 0 -20 4 -22
31 -17 43 7 467 66 489 68 15 1 17 7 13 30 -3 16 -6 33 -6 38 0 5 -5 9 -11 9
-6 0 -9 -7 -6 -15 4 -8 2 -17 -3 -20 -6 -4 -10 5 -10 18 0 14 -7 28 -16 31
-13 5 -14 3 -6 -6 8 -11 -34 -12 -221 -7 -128 4 -238 7 -244 8 -8 1 -13 17
-13 46 l0 45 -58 0 -58 0 -3 -50z m607 -95 c-3 -3 -9 2 -12 12 -6 14 -5 15 5
6 7 -7 10 -15 7 -18z m-53 5 c-3 -5 -12 -7 -20 -3 -21 7 -19 13 6 13 11 0 18
-4 14 -10z m92 -16 c-3 -3 -12 -4 -19 -1 -8 3 -5 6 6 6 11 1 17 -2 13 -5z"/>
<path d="M2833 1027 c-109 -20 -111 -20 -115 -49 -3 -16 -2 -31 2 -33 8 -5
262 14 268 20 2 2 1 22 -3 44 -8 48 2 46 -152 18z"/>
<path d="M1661 969 c-7 -23 -10 -43 -7 -46 3 -3 72 -9 153 -13 107 -6 150 -5
155 4 10 15 10 56 0 56 -15 0 -247 30 -268 35 -17 4 -23 -2 -33 -36z"/>
<path d="M2908 923 c6 -2 18 -2 25 0 6 3 1 5 -13 5 -14 0 -19 -2 -12 -5z"/>
<path d="M2838 913 c7 -3 16 -2 19 1 4 3 -2 6 -13 5 -11 0 -14 -3 -6 -6z"/>
<path d="M2778 903 c7 -3 16 -2 19 1 4 3 -2 6 -13 5 -11 0 -14 -3 -6 -6z"/>
<path d="M1728 863 c6 -2 18 -2 25 0 6 3 1 5 -13 5 -14 0 -19 -2 -12 -5z"/>
<path d="M1833 853 c9 -2 25 -2 35 0 9 3 1 5 -18 5 -19 0 -27 -2 -17 -5z"/>
<path d="M1728 563 c-2 -5 -3 -24 -3 -43 l0 -35 58 -3 57 -3 0 41 c0 33 -3 40
-20 40 -15 0 -20 -7 -20 -29 0 -16 -6 -31 -15 -35 -12 -4 -15 2 -15 28 0 22
-6 36 -16 40 -20 8 -22 8 -26 -1z"/>
<path d="M1660 526 c0 -20 6 -36 14 -39 20 -8 26 2 26 40 0 26 -4 33 -20 33
-16 0 -20 -7 -20 -34z"/>
<path d="M1870 532 c0 -15 -5 -33 -12 -40 -9 -9 -4 -12 26 -12 31 0 37 3 32
16 -3 9 -6 27 -6 40 0 17 -6 24 -20 24 -15 0 -20 -7 -20 -28z"/>
<path d="M2849 548 c-1 -7 -1 -19 0 -25 1 -7 -3 -13 -9 -13 -5 0 -10 -4 -10
-9 0 -9 46 -8 56 1 3 3 2 17 -2 32 -6 26 -33 37 -35 14z"/>
<path d="M2930 531 c0 -25 4 -31 21 -31 16 0 20 5 17 27 -2 17 -10 29 -20 31
-14 3 -18 -3 -18 -27z"/>
<path d="M2990 529 c0 -24 4 -30 18 -27 10 2 18 14 20 31 3 22 -1 27 -17 27
-17 0 -21 -6 -21 -31z"/>
<path d="M2769 543 c-1 -5 -1 -19 0 -33 2 -21 0 -22 -9 -10 -9 12 -11 12 -8 1
5 -16 46 -23 54 -9 10 16 -6 58 -21 58 -8 0 -15 -3 -16 -7z"/>
<path d="M3096 412 c-3 -5 -73 -8 -156 -7 -85 0 -150 -3 -150 -8 0 -6 -5 -5
-12 0 -19 15 -59 1 -49 -16 7 -11 42 -12 195 -6 173 7 186 9 186 26 0 20 -6
24 -14 11z"/>
<path d="M1574 393 c3 -16 23 -19 185 -27 100 -5 183 -7 185 -5 2 2 7 15 11
28 5 18 4 22 -6 15 -18 -11 -359 -14 -359 -3 0 5 -4 9 -9 9 -5 0 -8 -8 -7 -17z"/>
</g>
</svg>
